<?xml version="1.0" encoding="utf-8"?>
<!-- Generator: Adobe Illustrator 16.0.0, SVG Export Plug-In . SVG Version: 6.00 Build 0)  -->
<!DOCTYPE svg PUBLIC "-//W3C//DTD SVG 1.1//EN" "http://www.w3.org/Graphics/SVG/1.1/DTD/svg11.dtd">
<svg version="1.1" id="Layer_1" xmlns="http://www.w3.org/2000/svg" xmlns:xlink="http://www.w3.org/1999/xlink" x="0px" y="0px"
	 width="79px" height="59px" viewBox="0 0 79 59" enable-background="new 0 0 79 59" xml:space="preserve">
<polygon fill-rule="evenodd" clip-rule="evenodd" fill="#1F0D0E" points="-0.119,29.448 9.747,29.448 9.747,39.313 -0.119,39.313 
	-0.119,29.448 "/>
<polygon fill-rule="evenodd" clip-rule="evenodd" fill="#1F0D0E" points="9.747,39.313 19.612,39.313 19.612,49.18 9.747,49.18 
	9.747,39.313 "/>
<polygon fill-rule="evenodd" clip-rule="evenodd" fill="#1F0D0E" points="19.612,49.18 29.478,49.18 29.478,59.045 19.612,59.045 
	19.612,49.18 "/>
<polygon fill-rule="evenodd" clip-rule="evenodd" fill="#1F0D0E" points="29.478,39.313 39.344,39.313 39.344,49.18 29.478,49.18 
	29.478,39.313 "/>
<polygon fill-rule="evenodd" clip-rule="evenodd" fill="#1F0D0E" points="39.344,29.448 49.209,29.448 49.209,39.313 39.344,39.313 
	39.344,29.448 "/>
<polygon fill-rule="evenodd" clip-rule="evenodd" fill="#1F0D0E" points="49.209,19.582 59.074,19.582 59.074,29.448 49.209,29.448 
	49.209,19.582 "/>
<polygon fill-rule="evenodd" clip-rule="evenodd" fill="#1F0D0E" points="59.074,9.717 68.939,9.717 68.939,19.582 59.074,19.582 
	59.074,9.717 "/>
<polygon fill-rule="evenodd" clip-rule="evenodd" fill="#1F0D0E" points="68.939,-0.148 78.806,-0.148 78.806,9.717 68.939,9.717 
	68.939,-0.148 "/>
</svg>
